<svg width="20" height="20" viewBox="0 0 20 20" fill="none" xmlns="http://www.w3.org/2000/svg">
<path d="M9.56258 12.0625L6.54175 9.04165C6.50008 8.99998 6.46883 8.95484 6.448 8.90623C6.42716 8.85762 6.41675 8.80554 6.41675 8.74998C6.41675 8.63887 6.45494 8.54165 6.53133 8.45831C6.60772 8.37498 6.70841 8.33331 6.83341 8.33331H13.1667C13.2917 8.33331 13.3924 8.37498 13.4688 8.45831C13.5452 8.54165 13.5834 8.63887 13.5834 8.74998C13.5834 8.77776 13.5417 8.87498 13.4584 9.04165L10.4376 12.0625C10.3681 12.1319 10.2987 12.1805 10.2292 12.2083C10.1598 12.2361 10.0834 12.25 10.0001 12.25C9.91675 12.25 9.84036 12.2361 9.77091 12.2083C9.70147 12.1805 9.63203 12.1319 9.56258 12.0625Z" fill="black"/>
</svg>
