<svg width="20" height="20" viewBox="0 0 20 20" fill="none" xmlns="http://www.w3.org/2000/svg">
<path d="M7.3334 13.8958L10.0001 12.3125L12.6876 13.8958L11.9792 10.8958L14.2917 8.91665L11.2292 8.64581L10.0001 5.79165L8.7709 8.64581L5.7084 8.91665L8.04173 10.8958L7.3334 13.8958ZM10.0001 14.0625L6.5834 16.1041C6.43062 16.1875 6.28132 16.2222 6.13548 16.2083C5.98965 16.1944 5.86118 16.1458 5.75007 16.0625C5.63895 15.9791 5.55562 15.8646 5.50007 15.7187C5.44451 15.5729 5.43757 15.4236 5.47923 15.2708L6.37507 11.4583L3.35423 8.89581C3.22923 8.7847 3.15284 8.65623 3.12507 8.5104C3.09729 8.36456 3.10423 8.2222 3.1459 8.08331C3.18757 7.94442 3.26395 7.82984 3.37507 7.73956C3.48618 7.64929 3.62507 7.5972 3.79173 7.58331L7.75007 7.22915L9.31256 3.60415C9.38201 3.45137 9.47923 3.33679 9.60423 3.2604C9.72923 3.18401 9.86118 3.14581 10.0001 3.14581C10.139 3.14581 10.2709 3.18401 10.3959 3.2604C10.5209 3.33679 10.6181 3.45137 10.6876 3.60415L12.2501 7.24998L16.2084 7.58331C16.3751 7.5972 16.514 7.65276 16.6251 7.74998C16.7362 7.8472 16.8126 7.96526 16.8542 8.10415C16.8959 8.24304 16.8994 8.38192 16.8646 8.52081C16.8299 8.6597 16.7501 8.7847 16.6251 8.89581L13.6251 11.4583L14.5209 15.2708C14.5626 15.4236 14.5556 15.5729 14.5001 15.7187C14.4445 15.8646 14.3612 15.9791 14.2501 16.0625C14.139 16.1458 14.0105 16.1944 13.8646 16.2083C13.7188 16.2222 13.5695 16.1875 13.4167 16.1041L10.0001 14.0625Z" fill="black"/>
<path d="M7.3334 13.8958L10.0001 12.3125L12.6876 13.8958L11.9792 10.8958L14.2917 8.91665L11.2292 8.64581L10.0001 5.79165L8.7709 8.64581L5.7084 8.91665L8.04173 10.8958L7.3334 13.8958Z" fill="black"/>
</svg>
